<svg xmlns="http://www.w3.org/2000/svg" width="26.361" height="26.361" viewBox="0 0 26.361 26.361"><g transform="translate(-0.5 -0.5)"><path d="M20.144,16.822A3.322,3.322,0,1,1,16.822,13.5,3.322,3.322,0,0,1,20.144,16.822Z" transform="translate(-3.141 -3.141)" fill="none" stroke="#a8a8a8" stroke-linecap="round" stroke-linejoin="round" stroke-width="2"/><path d="M21.875,17a1.827,1.827,0,0,0,.365,2.015l.066.066a2.216,2.216,0,1,1-3.134,3.134l-.066-.066a1.842,1.842,0,0,0-3.123,1.307v.188a2.215,2.215,0,0,1-4.429,0v-.1a1.827,1.827,0,0,0-1.2-1.672,1.827,1.827,0,0,0-2.015.365l-.066.066a2.216,2.216,0,1,1-3.134-3.134l.066-.066A1.842,1.842,0,0,0,3.9,15.984H3.715a2.215,2.215,0,1,1,0-4.429h.1a1.827,1.827,0,0,0,1.672-1.2,1.827,1.827,0,0,0-.365-2.015l-.066-.066A2.216,2.216,0,1,1,8.188,5.143l.066.066a1.827,1.827,0,0,0,2.015.365h.089A1.827,1.827,0,0,0,11.466,3.9V3.715a2.215,2.215,0,1,1,4.429,0v.1a1.842,1.842,0,0,0,3.123,1.307l.066-.066a2.216,2.216,0,1,1,3.134,3.134l-.066.066a1.827,1.827,0,0,0-.365,2.015v.089a1.827,1.827,0,0,0,1.672,1.107h.188a2.215,2.215,0,0,1,0,4.429h-.1A1.827,1.827,0,0,0,21.875,17Z" transform="translate(0 0)" fill="none" stroke="#a8a8a8" stroke-linecap="round" stroke-linejoin="round" stroke-width="2"/></g></svg>