<svg xmlns="http://www.w3.org/2000/svg" width="23.428" height="23.428" viewBox="0 0 23.428 23.428"><path d="M19.919,5.654A11.613,11.613,0,0,0,1.647,19.664L0,25.678l6.155-1.616A11.574,11.574,0,0,0,11.7,25.474h.005A11.721,11.721,0,0,0,23.428,13.865a11.655,11.655,0,0,0-3.509-8.21Zm-8.21,17.864a9.632,9.632,0,0,1-4.916-1.344l-.35-.209-3.65.957.973-3.561-.23-.366a9.668,9.668,0,1,1,17.932-5.13,9.757,9.757,0,0,1-9.758,9.653ZM17,16.291c-.288-.146-1.715-.847-1.982-.941s-.46-.146-.654.146-.748.941-.92,1.14-.34.22-.628.073a7.9,7.9,0,0,1-3.948-3.451c-.3-.512.3-.476.852-1.585a.538.538,0,0,0-.026-.507c-.073-.146-.654-1.574-.894-2.155-.235-.565-.476-.486-.654-.5s-.361-.01-.554-.01a1.075,1.075,0,0,0-.774.361A3.26,3.26,0,0,0,5.8,11.286a5.683,5.683,0,0,0,1.182,3,12.963,12.963,0,0,0,4.957,4.382c1.841.795,2.562.863,3.483.727a2.971,2.971,0,0,0,1.956-1.381,2.426,2.426,0,0,0,.167-1.381C17.482,16.505,17.288,16.432,17,16.291Z" transform="translate(0 -2.25)" fill="#412ea0"/></svg>