<svg xmlns="http://www.w3.org/2000/svg" width="21.834" height="24.953" viewBox="0 0 21.834 24.953"><path d="M18.98,9.9,17.4,8.316,9.482,16.229a3.358,3.358,0,0,0,4.749,4.748l9.5-9.5a5.6,5.6,0,0,0-7.914-7.913L5.843,13.539l-.021.021A7.8,7.8,0,0,0,16.86,24.6l.02-.021h0l6.807-6.806L22.1,16.187,15.3,22.993l-.021.021A5.566,5.566,0,0,1,7.4,15.143l.022-.021h0L17.4,5.15A3.358,3.358,0,1,1,22.147,9.9l-9.5,9.5a1.119,1.119,0,1,1-1.583-1.582L18.98,9.9Z" transform="translate(-3.535 -1.928)" fill="#412ea0"/></svg>