<svg xmlns="http://www.w3.org/2000/svg" width="26.537" height="26.537" viewBox="0 0 26.537 26.537"><g transform="translate(-2 -2)"><path d="M15.954,13.5H27a2.454,2.454,0,0,1,2.454,2.454V27A2.454,2.454,0,0,1,27,29.449H15.954A2.454,2.454,0,0,1,13.5,27V15.954A2.454,2.454,0,0,1,15.954,13.5Z" transform="translate(-1.912 -1.912)" fill="none" stroke="#aaa" stroke-linecap="round" stroke-linejoin="round" stroke-width="2"/><path d="M6.681,18.949H5.454A2.454,2.454,0,0,1,3,16.5V5.454A2.454,2.454,0,0,1,5.454,3H16.5a2.454,2.454,0,0,1,2.454,2.454V6.681" fill="none" stroke="#aaa" stroke-linecap="round" stroke-linejoin="round" stroke-width="2"/></g></svg>