<svg xmlns="http://www.w3.org/2000/svg" width="24.862" height="24.241" viewBox="0 0 24.862 24.241"><path d="M8.316,20.082c0,.1-.115.18-.261.18-.165.015-.281-.065-.281-.18,0-.1.115-.18.261-.18C8.186,19.886,8.316,19.966,8.316,20.082Zm-1.559-.226c-.035.1.065.216.216.246a.235.235,0,0,0,.311-.1c.03-.1-.065-.216-.216-.261A.257.257,0,0,0,6.757,19.856Zm2.216-.085c-.145.035-.246.13-.231.246.015.1.145.165.3.13s.246-.13.231-.231S9.118,19.756,8.973,19.771ZM12.271.563A12.02,12.02,0,0,0,0,12.793a12.567,12.567,0,0,0,8.5,11.99c.642.115.867-.281.867-.607,0-.311-.015-2.025-.015-3.078,0,0-3.509.752-4.246-1.494,0,0-.571-1.459-1.393-1.835,0,0-1.148-.787.08-.772a2.646,2.646,0,0,1,1.935,1.293A2.65,2.65,0,0,0,9.379,19.34a2.786,2.786,0,0,1,.8-1.689c-2.8-.311-5.629-.717-5.629-5.539A3.8,3.8,0,0,1,5.734,9.159a4.736,4.736,0,0,1,.13-3.4C6.912,5.43,9.323,7.109,9.323,7.109a11.842,11.842,0,0,1,6.3,0s2.411-1.684,3.459-1.353a4.734,4.734,0,0,1,.13,3.4A3.9,3.9,0,0,1,20.5,12.111c0,4.837-2.952,5.223-5.754,5.539a2.964,2.964,0,0,1,.852,2.326c0,1.689-.015,3.779-.015,4.191,0,.326.231.722.867.607a12.451,12.451,0,0,0,8.411-11.98A12.291,12.291,0,0,0,12.271.563Zm-7.4,17.288c-.065.05-.05.165.035.261.08.08.2.115.261.05.065-.05.05-.165-.035-.261C5.053,17.821,4.937,17.786,4.872,17.851Zm-.541-.406c-.035.065.015.145.115.2a.149.149,0,0,0,.216-.035c.035-.065-.015-.145-.115-.2C4.446,17.38,4.366,17.395,4.331,17.445Zm1.624,1.784c-.08.065-.05.216.065.311.115.115.261.13.326.05.065-.065.035-.216-.065-.311C6.17,19.164,6.02,19.149,5.955,19.229Zm-.571-.737c-.08.05-.08.18,0,.3s.216.165.281.115a.229.229,0,0,0,0-.311C5.594,18.477,5.464,18.427,5.384,18.493Z" transform="translate(0 -0.563)" fill="#412ea0"/></svg>