<svg xmlns="http://www.w3.org/2000/svg" width="23.278" height="26.603" viewBox="0 0 23.278 26.603"><path d="M24.451,25.206H7.824V21.881l4.988-8.314,6.833,8.314,4.806-3.325Zm0-10.808A2.494,2.494,0,1,1,21.957,11.9,2.494,2.494,0,0,1,24.451,14.4Zm2.229-6.519a23.557,23.557,0,0,0-2.265-2.59,23.563,23.563,0,0,0-2.59-2.265,4.144,4.144,0,0,0-2.362-1.1H6.577A2.081,2.081,0,0,0,4.5,4.006V26.453a2.081,2.081,0,0,0,2.078,2.078H25.7a2.081,2.081,0,0,0,2.078-2.078V10.242a4.143,4.143,0,0,0-1.1-2.362ZM23.24,6.465a22.676,22.676,0,0,1,1.886,2.114h-4v-4A22.654,22.654,0,0,1,23.24,6.465Zm2.874,19.988a.421.421,0,0,1-.416.416H6.577a.421.421,0,0,1-.416-.416V4.006a.421.421,0,0,1,.416-.416H19.463V9.41a.831.831,0,0,0,.831.831h5.82Z" transform="translate(-4.499 -1.928)" fill="#412ea0"/></svg>